<?xml version="1.0" standalone="no"?>
<!DOCTYPE svg PUBLIC "-//W3C//DTD SVG 20010904//EN"
 "http://www.w3.org/TR/2001/REC-SVG-20010904/DTD/svg10.dtd">
<svg version="1.0" xmlns="http://www.w3.org/2000/svg"
 width="880.000000pt" height="880.000000pt" viewBox="0 0 880.000000 880.000000"
 preserveAspectRatio="xMidYMid meet">
<metadata>
Created by potrace 1.14, written by Peter Selinger 2001-2017
</metadata>
<g transform="translate(0.000000,880.000000) scale(0.100000,-0.100000)"
fill="#000000" stroke="none">
<path d="M7 6943 c7 -19 83 -144 93 -153 3 -3 11 -17 19 -32 8 -16 18 -28 23
-28 4 0 8 -4 8 -10 0 -5 38 -67 83 -137 207 -316 257 -395 257 -404 0 -5 4 -9
9 -9 5 0 15 -12 22 -27 8 -16 54 -89 103 -163 48 -74 118 -181 155 -238 36
-56 96 -148 133 -205 37 -56 68 -105 68 -109 0 -5 7 -16 16 -25 9 -10 34 -47
56 -83 23 -36 45 -68 50 -71 6 -3 9 -9 9 -13 -1 -6 38 -67 226 -354 51 -79 93
-145 93 -148 0 -3 8 -16 18 -29 21 -28 23 -31 121 -182 l79 -122 -30 -47 c-16
-26 -60 -93 -96 -148 -37 -56 -73 -113 -81 -128 -7 -16 -17 -28 -21 -28 -4 0
-10 -8 -14 -17 -5 -18 -26 -54 -36 -63 -3 -3 -41 -61 -85 -130 -44 -69 -82
-127 -85 -130 -7 -7 -28 -41 -37 -60 -4 -8 -11 -19 -16 -25 -18 -22 -137 -209
-137 -217 0 -4 -5 -8 -11 -8 -5 0 -7 -4 -4 -10 3 -5 2 -10 -4 -10 -5 0 -16
-12 -24 -27 -7 -16 -69 -111 -136 -213 -67 -102 -125 -193 -128 -202 -3 -10
-9 -18 -14 -18 -5 0 -9 -7 -9 -15 0 -8 -3 -15 -8 -15 -4 0 -16 -17 -27 -37
-11 -21 -25 -42 -32 -46 -7 -4 -13 -13 -13 -18 0 -6 -18 -36 -40 -68 -22 -31
-40 -62 -40 -68 0 -6 -3 -13 -8 -15 -7 -3 -170 -247 -197 -295 -5 -10 -25 -39
-42 -65 -18 -26 -33 -51 -33 -57 0 -6 -4 -11 -10 -11 -5 0 -10 -6 -10 -13 0
-8 -9 -22 -20 -32 -11 -10 -20 -22 -20 -26 0 -5 -13 -28 -29 -51 -95 -140
-148 -228 -138 -228 7 0 6 -4 -3 -10 -10 -6 780 -10 2238 -10 l2252 0 1 28 c0
15 2 101 4 192 2 91 6 300 10 465 4 165 8 368 8 450 l2 150 -1130 1 c-621 1
-1133 2 -1138 3 -7 1 37 75 60 99 7 7 13 18 13 23 0 6 6 17 13 24 6 7 62 91
122 185 107 166 265 410 285 440 5 8 23 35 39 60 15 25 61 94 100 154 39 59
71 110 71 111 0 2 25 40 55 86 31 45 54 88 51 96 -3 7 -39 65 -81 128 -41 64
-75 118 -75 121 0 3 -5 10 -11 17 -6 7 -53 77 -104 157 -51 80 -98 150 -104
157 -6 7 -11 15 -11 19 0 4 -11 22 -25 40 -14 18 -25 37 -25 43 0 6 -3 11 -7
11 -5 0 -24 27 -42 60 -19 33 -39 60 -43 60 -4 0 -8 5 -8 10 0 6 -31 58 -70
116 -38 58 -70 110 -70 115 0 5 -4 9 -10 9 -5 0 -10 7 -10 15 0 8 -4 15 -10
15 -5 0 -10 4 -10 10 0 5 -22 42 -49 82 -27 40 -48 75 -46 78 2 3 526 5 1164
5 639 -1 1161 2 1162 5 2 11 14 520 24 1053 l4 227 -2304 0 c-2190 0 -2304 -1
-2298 -17z"/>
<path d="M4850 6950 c0 -5 4 -10 8 -10 4 0 16 -15 27 -32 10 -18 21 -35 25
-38 6 -5 46 -57 95 -126 20 -27 67 -89 83 -109 19 -24 129 -173 151 -205 13
-19 26 -37 30 -40 4 -3 31 -39 61 -80 30 -41 60 -82 67 -90 26 -30 73 -93 73
-99 0 -3 13 -20 28 -38 15 -17 36 -44 47 -59 43 -60 110 -149 115 -154 3 -3
16 -21 30 -40 13 -19 28 -39 33 -45 4 -5 46 -62 93 -125 47 -63 94 -125 105
-138 10 -12 19 -26 19 -30 0 -5 11 -19 25 -32 14 -13 25 -28 25 -35 0 -6 9
-17 20 -25 11 -8 20 -20 20 -26 0 -7 3 -14 8 -16 4 -1 32 -37 62 -78 30 -41
63 -84 72 -94 10 -11 18 -23 18 -27 0 -4 6 -14 13 -21 7 -7 36 -44 65 -83 29
-38 61 -81 71 -95 10 -14 56 -74 101 -135 123 -165 123 -166 150 -201 14 -18
36 -49 50 -69 14 -19 39 -52 57 -72 l32 -36 -38 -53 c-21 -29 -49 -68 -64 -86
-14 -18 -114 -148 -222 -288 -107 -140 -204 -266 -215 -280 -11 -14 -36 -47
-57 -75 -20 -27 -42 -55 -48 -62 -14 -17 -25 -31 -60 -78 -16 -22 -33 -44 -38
-50 -7 -9 -227 -296 -287 -375 -70 -92 -81 -106 -92 -120 -7 -8 -26 -32 -42
-55 -16 -22 -33 -41 -38 -43 -4 -2 -8 -10 -8 -17 0 -7 -4 -15 -8 -17 -4 -1
-43 -50 -87 -108 -43 -58 -84 -109 -90 -115 -6 -5 -22 -26 -35 -45 -13 -19
-27 -37 -30 -40 -3 -3 -24 -30 -45 -60 -48 -66 -64 -87 -87 -112 -10 -10 -18
-21 -18 -25 0 -3 -7 -13 -16 -22 -18 -19 -364 -472 -364 -477 0 -2 494 -4
1098 -4 l1097 0 25 37 c14 21 45 65 70 99 25 34 52 72 60 84 13 19 65 91 224
311 47 65 36 50 200 279 69 96 129 180 134 185 4 6 72 100 150 210 79 110 149
209 158 220 44 60 104 146 104 150 0 3 7 13 14 22 34 41 126 175 126 183 0 4
4 10 8 12 5 2 28 32 53 67 109 158 143 206 259 371 68 96 148 210 177 254 l55
79 -21 28 c-12 15 -21 30 -21 32 0 3 -31 51 -70 108 -38 57 -74 111 -80 119
-5 8 -25 39 -45 67 -19 29 -35 55 -35 58 0 2 -7 13 -15 22 -8 10 -52 77 -99
148 -47 72 -89 135 -95 142 -6 7 -11 14 -11 17 0 3 -25 41 -55 85 -30 44 -55
85 -55 90 0 5 -3 11 -7 13 -5 2 -24 28 -44 58 -150 225 -199 302 -199 310 0 4
-4 10 -8 12 -4 2 -34 44 -67 93 -32 50 -116 177 -187 284 -70 106 -128 197
-128 201 0 5 -3 10 -7 12 -5 2 -48 64 -98 138 -73 111 -160 238 -202 296 -5 5
-12 17 -18 26 -5 9 -39 57 -74 107 l-63 91 -1099 0 c-726 0 -1099 -3 -1099
-10z"/>
</g>
</svg>
