<svg width="44" height="44" viewBox="0 0 44 44" fill="none"
     xmlns="http://www.w3.org/2000/svg">
    <path
            d="M13.8375 40C30.4421 40 39.5225 26.1512 39.5225 14.142C39.5225 13.7486 39.5146 13.3571 39.497 12.9672C41.2637 11.6802 42.7885 10.0867 44 8.26117C42.3825 8.98506 40.6419 9.47232 38.816 9.69201C40.6797 8.56678 42.1105 6.78707 42.7856 4.66533C41.0134 5.72371 39.0748 6.46977 37.0533 6.87135C35.4059 5.10487 33.0608 4 30.4638 4C25.4786 4 21.436 8.07001 21.436 13.0869C21.436 13.8001 21.5153 14.4938 21.6702 15.1591C14.1674 14.779 7.51445 11.1627 3.06195 5.66377C2.26002 7.05059 1.83819 8.62689 1.83956 10.2316C1.83956 13.3846 3.43328 16.1681 5.85679 17.7965C4.42327 17.7525 3.02119 17.3627 1.76839 16.6598C1.76706 16.698 1.76706 16.7352 1.76706 16.7759C1.76706 21.1773 4.87877 24.852 9.0094 25.6847C8.23359 25.8975 7.43306 26.005 6.629 26.0046C6.05957 26.0042 5.49147 25.9493 4.93236 25.8407C6.08166 29.4517 9.41425 32.0794 13.3653 32.1528C10.2756 34.5909 6.38346 36.043 2.15331 36.043C1.42555 36.043 0.706648 36.0013 0 35.9172C3.99523 38.4953 8.7392 39.9996 13.838 39.9996"
            fill="#FFF"/>
</svg>